HIERARCHY
ROOT Hips
{
	OFFSET -0.150001 87.211151 2.220142
	CHANNELS 6 Xposition Yposition Zposition Xrotation Yrotation Zrotation
	JOINT Pelvis
	{
		OFFSET 0.000000 0.000000 0.000000
		CHANNELS 3 Xrotation Yrotation Zrotation
		JOINT LeftUpLeg
		{
			OFFSET 12.016979 -9.376381 -2.439418
			CHANNELS 3 Xrotation Yrotation Zrotation
			JOINT LeftLeg
			{
				OFFSET -0.817380 -32.836784 2.110571
				CHANNELS 3 Xrotation Yrotation Zrotation
				JOINT LeftFoot
				{
					OFFSET -0.783454 -32.055588 -0.570427
					CHANNELS 3 Xrotation Yrotation Zrotation
					JOINT LeftToeBase
					{
						OFFSET 0.728348 -11.045863 13.180651
						CHANNELS 3 Xrotation Yrotation Zrotation
						End Site
						{
							OFFSET 0.000000 17.212528 0.000000
						}
					}
				}
				JOINT LeftPantLeg
				{
					OFFSET -0.409309 -16.703976 -3.143619
					CHANNELS 3 Xrotation Yrotation Zrotation
					End Site
					{
						OFFSET 0.000000 24.536182 0.000000
					}
				}
			}
			JOINT Left_Butt
			{
				OFFSET -6.595482 1.489731 -3.183693
				CHANNELS 3 Xrotation Yrotation Zrotation
				End Site
				{
					OFFSET 0.000000 20.194176 0.000000
				}
			}
		}
		JOINT RightUpLeg
		{
			OFFSET -11.716976 -9.376381 -2.439418
			CHANNELS 3 Xrotation Yrotation Zrotation
			JOINT RightLeg
			{
				OFFSET 0.806788 -32.837044 2.110606
				CHANNELS 3 Xrotation Yrotation Zrotation
				JOINT RightFoot
				{
					OFFSET 0.794045 -32.055328 -0.570462
					CHANNELS 3 Xrotation Yrotation Zrotation
					JOINT RightToeBase
					{
						OFFSET -0.728348 -11.045862 13.180651
						CHANNELS 3 Xrotation Yrotation Zrotation
						End Site
						{
							OFFSET 0.000000 17.212528 0.000000
						}
					}
				}
				JOINT RightPantLeg
				{
					OFFSET 0.420190 -16.703716 -3.143653
					CHANNELS 3 Xrotation Yrotation Zrotation
					End Site
					{
						OFFSET 0.000000 24.536198 0.000000
					}
				}
			}
			JOINT Right_Butt
			{
				OFFSET 6.595978 1.489731 -3.183693
				CHANNELS 3 Xrotation Yrotation Zrotation
				End Site
				{
					OFFSET 0.000000 20.194397 0.000000
				}
			}
		}
	}
	JOINT Spine
	{
		OFFSET -0.062379 7.848404 3.918342
		CHANNELS 3 Xrotation Yrotation Zrotation
		JOINT Spine1
		{
			OFFSET -0.072775 11.422256 0.713384
			CHANNELS 3 Xrotation Yrotation Zrotation
			JOINT Spine2
			{
				OFFSET -0.083171 13.054008 -1.931563
				CHANNELS 3 Xrotation Yrotation Zrotation
				JOINT Neck
				{
					OFFSET -0.092225 14.121773 -5.138807
					CHANNELS 3 Xrotation Yrotation Zrotation
					JOINT Head
					{
						OFFSET 0.000171 10.447388 -0.842032
						CHANNELS 3 Xrotation Yrotation Zrotation
						JOINT Visor
						{
							OFFSET 0.457139 25.671173 16.550411
							CHANNELS 3 Xrotation Yrotation Zrotation
							End Site
							{
								OFFSET 0.000000 26.061493 0.000000
							}
						}
						JOINT HairMidA
						{
							OFFSET 0.459357 31.585358 8.437352
							CHANNELS 3 Xrotation Yrotation Zrotation
							End Site
							{
								OFFSET 0.000000 26.061493 0.000000
							}
						}
						JOINT HairMidB
						{
							OFFSET 0.464023 33.309235 -8.389654
							CHANNELS 3 Xrotation Yrotation Zrotation
							End Site
							{
								OFFSET 0.000000 26.061493 0.000000
							}
						}
						JOINT HairMidC
						{
							OFFSET 0.466553 27.991165 -17.375053
							CHANNELS 3 Xrotation Yrotation Zrotation
							End Site
							{
								OFFSET 0.000000 26.061493 0.000000
							}
						}
						JOINT HairMidD
						{
							OFFSET 0.467668 17.888062 -21.169472
							CHANNELS 3 Xrotation Yrotation Zrotation
							End Site
							{
								OFFSET 0.000000 26.061493 0.000000
							}
						}
						JOINT HairMidE
						{
							OFFSET 5.325659 3.514648 -14.369741
							CHANNELS 3 Xrotation Yrotation Zrotation
							End Site
							{
								OFFSET 0.000000 26.061493 0.000000
							}
						}
						JOINT HairMidF
						{
							OFFSET -4.394134 3.514587 -14.372442
							CHANNELS 3 Xrotation Yrotation Zrotation
							End Site
							{
								OFFSET 0.000000 26.061493 0.000000
							}
						}
						JOINT HairLeftA
						{
							OFFSET 15.319869 25.746521 2.623347
							CHANNELS 3 Xrotation Yrotation Zrotation
							End Site
							{
								OFFSET 0.000000 26.061493 0.000000
							}
						}
						JOINT HairLeftB
						{
							OFFSET 12.619466 29.289368 -8.731475
							CHANNELS 3 Xrotation Yrotation Zrotation
							End Site
							{
								OFFSET 0.000000 26.061493 0.000000
							}
						}
						JOINT HairLeftC
						{
							OFFSET 15.714844 15.959915 2.909834
							CHANNELS 3 Xrotation Yrotation Zrotation
							End Site
							{
								OFFSET 0.000000 26.061493 0.000000
							}
						}
						JOINT HairLeftD
						{
							OFFSET 16.101723 18.437363 -7.553188
							CHANNELS 3 Xrotation Yrotation Zrotation
							End Site
							{
								OFFSET 0.000000 26.061493 0.000000
							}
						}
						JOINT HairLeftE
						{
							OFFSET 9.731930 17.914993 -18.316845
							CHANNELS 3 Xrotation Yrotation Zrotation
							End Site
							{
								OFFSET 0.000000 26.061493 0.000000
							}
						}
						JOINT HairLeftF
						{
							OFFSET 11.204299 4.953644 -9.668147
							CHANNELS 3 Xrotation Yrotation Zrotation
							End Site
							{
								OFFSET 0.000000 26.061493 0.000000
							}
						}
						JOINT HairRightA
						{
							OFFSET -14.397850 25.746338 2.615088
							CHANNELS 3 Xrotation Yrotation Zrotation
							End Site
							{
								OFFSET 0.000000 26.061493 0.000000
							}
						}
						JOINT HairRightB
						{
							OFFSET -11.691177 29.289230 -8.738231
							CHANNELS 3 Xrotation Yrotation Zrotation
							End Site
							{
								OFFSET 0.000000 26.061493 0.000000
							}
						}
						JOINT HairRightC
						{
							OFFSET -14.792866 15.959732 2.901356
							CHANNELS 3 Xrotation Yrotation Zrotation
							End Site
							{
								OFFSET 0.000000 26.061493 0.000000
							}
						}
						JOINT HairRightD
						{
							OFFSET -15.173956 18.437164 -7.561880
							CHANNELS 3 Xrotation Yrotation Zrotation
							End Site
							{
								OFFSET 0.000000 26.061493 0.000000
							}
						}
						JOINT HairRightE
						{
							OFFSET -8.798178 17.914886 -18.321995
							CHANNELS 3 Xrotation Yrotation Zrotation
							End Site
							{
								OFFSET 0.000000 26.061493 0.000000
							}
						}
						JOINT HairRightF
						{
							OFFSET -10.275196 4.953506 -9.674116
							CHANNELS 3 Xrotation Yrotation Zrotation
							End Site
							{
								OFFSET 0.000000 26.061493 0.000000
							}
						}
					}
				}
				JOINT LeftShoulder
				{
					OFFSET 5.133502 7.341248 -1.867558
					CHANNELS 3 Xrotation Yrotation Zrotation
					JOINT LeftArm
					{
						OFFSET 8.073057 0.933060 -2.176591
						CHANNELS 3 Xrotation Yrotation Zrotation
						JOINT LeftForeArm
						{
							OFFSET 31.170431 -0.110054 -2.516341
							CHANNELS 3 Xrotation Yrotation Zrotation
							JOINT LeftHand
							{
								OFFSET 31.758984 -0.038307 -0.873058
								CHANNELS 3 Xrotation Yrotation Zrotation
								JOINT LeftHandThumb1
								{
									OFFSET 3.014229 -1.208282 4.882164
									CHANNELS 3 Xrotation Yrotation Zrotation
									JOINT LeftHandThumb2
									{
										OFFSET 2.436516 -1.204407 1.408011
										CHANNELS 3 Xrotation Yrotation Zrotation
										JOINT LeftHandThumb3
										{
											OFFSET 2.254616 -1.535309 0.973410
											CHANNELS 3 Xrotation Yrotation Zrotation
											End Site
											{
												OFFSET 0.000000 2.896202 0.000000
											}
										}
									}
								}
								JOINT LeftHandIndex1
								{
									OFFSET 8.516617 0.916695 3.193901
									CHANNELS 3 Xrotation Yrotation Zrotation
									JOINT LeftHandIndex2
									{
										OFFSET 3.305534 -0.513794 0.148831
										CHANNELS 3 Xrotation Yrotation Zrotation
										JOINT LeftHandIndex3
										{
											OFFSET 3.149483 -1.032883 -0.004956
											CHANNELS 3 Xrotation Yrotation Zrotation
											End Site
											{
												OFFSET 0.000000 3.314529 0.000000
											}
										}
									}
								}
								JOINT LeftHandMiddle1
								{
									OFFSET 8.085388 0.797127 0.009041
									CHANNELS 3 Xrotation Yrotation Zrotation
									JOINT LeftHandMiddle2
									{
										OFFSET 4.055710 -0.878586 -0.370356
										CHANNELS 3 Xrotation Yrotation Zrotation
										JOINT LeftHandMiddle3
										{
											OFFSET 2.822098 -1.032654 -0.279992
											CHANNELS 3 Xrotation Yrotation Zrotation
											End Site
											{
												OFFSET 0.000000 3.018112 0.000000
											}
										}
									}
								}
								JOINT LeftHandRing1
								{
									OFFSET 8.600105 0.164856 -2.793547
									CHANNELS 3 Xrotation Yrotation Zrotation
									JOINT LeftHandRing2
									{
										OFFSET 3.528015 -0.934578 -0.396605
										CHANNELS 3 Xrotation Yrotation Zrotation
										JOINT LeftHandRing3
										{
											OFFSET 2.593292 -0.815781 -0.236382
											CHANNELS 3 Xrotation Yrotation Zrotation
											End Site
											{
												OFFSET 0.000000 2.728836 0.000000
											}
										}
									}
								}
								JOINT LeftHandPinky1
								{
									OFFSET 8.001732 -1.051186 -4.918592
									CHANNELS 3 Xrotation Yrotation Zrotation
									JOINT LeftHandPinky2
									{
										OFFSET 2.860458 -0.755989 -0.813781
										CHANNELS 3 Xrotation Yrotation Zrotation
										JOINT LeftHandPinky3
										{
											OFFSET 2.324455 -0.524551 -0.249960
											CHANNELS 3 Xrotation Yrotation Zrotation
											End Site
											{
												OFFSET 0.000000 2.395981 0.000000
											}
										}
									}
								}
							}
							JOINT LeftSleeve
							{
								OFFSET 19.689919 -0.223915 -0.065017
								CHANNELS 3 Xrotation Yrotation Zrotation
								End Site
								{
									OFFSET 0.000000 25.731148 0.000000
								}
							}
						}
					}
				}
				JOINT RightShoulder
				{
					OFFSET -4.395899 7.341194 -1.870206
					CHANNELS 3 Xrotation Yrotation Zrotation
					JOINT RightArm
					{
						OFFSET -8.071857 0.932961 -2.181078
						CHANNELS 3 Xrotation Yrotation Zrotation
						JOINT RightForeArm
						{
							OFFSET -31.169025 -0.110435 -2.533666
							CHANNELS 3 Xrotation Yrotation Zrotation
							JOINT RightHand
							{
								OFFSET -31.758495 -0.038696 -0.890710
								CHANNELS 3 Xrotation Yrotation Zrotation
								JOINT RightHandThumb1
								{
									OFFSET -3.016930 -1.208313 4.880487
									CHANNELS 3 Xrotation Yrotation Zrotation
									JOINT RightHandThumb2
									{
										OFFSET -2.437279 -1.204437 1.406657
										CHANNELS 3 Xrotation Yrotation Zrotation
										JOINT RightHandThumb3
										{
											OFFSET -2.255142 -1.535332 0.972157
											CHANNELS 3 Xrotation Yrotation Zrotation
											End Site
											{
												OFFSET 0.000000 2.896202 0.000000
											}
										}
									}
								}
								JOINT RightHandIndex1
								{
									OFFSET -8.518402 0.916595 3.189166
									CHANNELS 3 Xrotation Yrotation Zrotation
									JOINT RightHandIndex2
									{
										OFFSET -3.305611 -0.513840 0.146994
										CHANNELS 3 Xrotation Yrotation Zrotation
										JOINT RightHandIndex3
										{
											OFFSET -3.149467 -1.032913 -0.006706
											CHANNELS 3 Xrotation Yrotation Zrotation
											End Site
											{
												OFFSET 0.000000 3.314529 0.000000
											}
										}
									}
								}
								JOINT RightHandMiddle1
								{
									OFFSET -8.085396 0.797043 0.004547
									CHANNELS 3 Xrotation Yrotation Zrotation
									JOINT RightHandMiddle2
									{
										OFFSET -4.055504 -0.878647 -0.372611
										CHANNELS 3 Xrotation Yrotation Zrotation
										JOINT RightHandMiddle3
										{
											OFFSET -2.821922 -1.032684 -0.281561
											CHANNELS 3 Xrotation Yrotation Zrotation
											End Site
											{
												OFFSET 0.000000 3.018112 0.000000
											}
										}
									}
								}
								JOINT RightHandRing1
								{
									OFFSET -8.598557 0.164757 -2.798328
									CHANNELS 3 Xrotation Yrotation Zrotation
									JOINT RightHandRing2
									{
										OFFSET -3.527779 -0.934624 -0.398566
										CHANNELS 3 Xrotation Yrotation Zrotation
										JOINT RightHandRing3
										{
											OFFSET -2.593147 -0.815811 -0.237823
											CHANNELS 3 Xrotation Yrotation Zrotation
											End Site
											{
												OFFSET 0.000000 2.728836 0.000000
											}
										}
									}
								}
								JOINT RightHandPinky1
								{
									OFFSET -7.998985 -1.051277 -4.923038
									CHANNELS 3 Xrotation Yrotation Zrotation
									JOINT RightHandPinky2
									{
										OFFSET -2.859993 -0.756027 -0.815371
										CHANNELS 3 Xrotation Yrotation Zrotation
										JOINT RightHandPinky3
										{
											OFFSET -2.324310 -0.524582 -0.251251
											CHANNELS 3 Xrotation Yrotation Zrotation
											End Site
											{
												OFFSET 0.000000 2.395981 0.000000
											}
										}
									}
								}
							}
							JOINT RightSleeve
							{
								OFFSET -19.690090 -0.224159 -0.075961
								CHANNELS 3 Xrotation Yrotation Zrotation
								End Site
								{
									OFFSET 0.000000 25.731255 0.000000
								}
							}
						}
					}
				}
				JOINT Hood
				{
					OFFSET 0.369716 14.447853 -5.317849
					CHANNELS 3 Xrotation Yrotation Zrotation
					JOINT Hood1
					{
						OFFSET 0.001672 -5.553833 -5.895097
						CHANNELS 3 Xrotation Yrotation Zrotation
						JOINT Hood2
						{
							OFFSET -0.000161 -8.380455 0.763632
							CHANNELS 3 Xrotation Yrotation Zrotation
							End Site
							{
								OFFSET 0.000000 8.415169 0.000000
							}
						}
					}
				}
				JOINT Left_Breast
				{
					OFFSET 5.682508 3.120148 3.188847
					CHANNELS 3 Xrotation Yrotation Zrotation
					End Site
					{
						OFFSET 0.000000 10.528572 0.000000
					}
				}
				JOINT Right_Breast
				{
					OFFSET -4.947578 3.120087 3.185892
					CHANNELS 3 Xrotation Yrotation Zrotation
					End Site
					{
						OFFSET 0.000000 10.528572 0.000000
					}
				}
				JOINT Whistle
				{
					OFFSET 0.368230 11.471275 0.095403
					CHANNELS 3 Xrotation Yrotation Zrotation
					JOINT Whistle1
					{
						OFFSET -0.002040 -6.349861 7.479819
						CHANNELS 3 Xrotation Yrotation Zrotation
						JOINT Whistle2
						{
							OFFSET -0.001261 -8.217644 4.717561
							CHANNELS 3 Xrotation Yrotation Zrotation
							End Site
							{
								OFFSET 0.000000 9.475494 0.000000
							}
						}
					}
				}
			}
		}
		JOINT Belly
		{
			OFFSET 0.212380 1.592987 3.163679
			CHANNELS 3 Xrotation Yrotation Zrotation
			End Site
			{
				OFFSET 0.000000 7.496605 0.000000
			}
		}
	}
	JOINT FitGrandmaFacialAnim_Joint
	{
		OFFSET 1.280120 -86.211151 -1.082839
		CHANNELS 3 Xrotation Yrotation Zrotation
		End Site
		{
			OFFSET 0.000000 31.666611 0.000000
		}
	}
}
MOTION
Frames: 4
Frame Time: 0.016667
-4.446610 80.232574 -1.905522 -15.082927 -31.982453 -6.545260 0.000001 -6.467571 0.000001 -23.109233 3.315808 15.915268 39.563721 -13.430301 1.612179 8.521430 0.129582 -14.987885 0.000001 -0.000001 -0.000000 -0.000000 0.000002 0.000000 0.000002 0.000000 0.000001 11.028688 -20.064712 -16.115078 38.697338 -5.189054 -0.918822 -32.864060 -6.421469 17.161013 0.000000 0.000000 -0.000000 0.000001 0.000000 0.000002 -0.000000 -0.000001 -0.000001 6.020835 -4.797956 0.070883 12.035804 3.214011 -1.555559 12.035802 3.214027 -1.555563 0.808828 2.930018 5.847936 3.843917 16.036791 -7.029033 -0.000001 -0.000001 -0.000000 -0.000001 -0.000001 -0.000000 -0.000001 -0.000001 -0.000000 -0.000001 -0.000001 -0.000000 -0.000001 -0.000001 -0.000000 -0.000001 -0.000001 -0.000000 -0.000001 -0.000001 -0.000000 -0.000001 -0.000001 -0.000000 -0.000001 -0.000001 -0.000000 -0.000001 -0.000001 -0.000000 -0.000001 -0.000001 -0.000000 -0.000001 -0.000001 -0.000000 -0.000001 -0.000001 -0.000000 -0.000001 -0.000001 -0.000000 -0.000001 -0.000001 -0.000000 -0.000001 -0.000001 -0.000000 -0.000001 -0.000001 -0.000000 -0.000001 -0.000001 -0.000000 -0.000001 -0.000001 -0.000000 -0.675791 6.367325 14.462087 -28.637334 -41.667648 1.868144 11.507809 -25.316166 -9.957718 11.303025 -2.319831 12.018648 -0.031979 -7.370116 -5.480347 -3.483672 1.180955 8.243667 0.000001 -0.000001 -0.000002 -6.246538 -15.906804 -28.130091 -10.027763 -14.004774 -43.741259 0.000001 0.000001 0.000001 -7.972326 -17.082742 -30.726549 -11.991070 -10.726227 -38.065464 0.000005 -0.000001 -0.000002 -8.314404 -9.027984 -34.051170 -12.191595 -8.780945 -45.860383 -0.000001 0.000000 0.000001 -9.665843 -6.153436 -31.594208 -14.539553 -3.828096 -57.654146 0.000000 -0.000001 0.000000 -0.000003 0.000000 0.000000 0.346730 -1.487438 -4.151698 -25.441003 32.856044 -3.761165 0.711181 27.662761 10.468037 -3.730963 19.911576 6.135327 10.565363 11.458329 25.039923 0.819909 -10.495260 -8.355160 -0.000001 0.000000 0.000001 -4.531981 13.266734 14.956250 -5.930212 10.800531 30.605224 -0.000001 -0.000001 0.000001 -5.404110 13.666295 17.509122 -7.273165 8.148034 25.215954 -0.000002 -0.000000 0.000001 -3.171265 5.945135 21.519315 -8.598132 8.146168 32.600783 -0.000001 0.000000 0.000001 -3.145890 4.535617 19.730781 -11.758335 5.374777 44.074183 -0.000001 -0.000002 0.000002 -0.000000 0.000000 0.000000 0.000001 -0.000000 0.000001 0.000001 -0.000000 0.000001 0.000001 -0.000000 0.000001 0.000001 -0.000000 0.000001 0.000001 -0.000000 0.000001 0.000001 -0.000000 0.000001 0.000001 -0.000000 0.000001 0.000001 -0.000000 0.000001 -0.000000 0.000003 0.000000 0.000000 0.000001 0.000001 
-6.242261 84.823524 -1.460272 -15.471369 -32.460471 -6.711103 -0.000001 -6.467569 0.000000 -14.970014 7.134807 15.853035 21.777624 -14.221214 2.250112 26.828587 -3.378785 -17.209666 -0.000000 0.000003 -0.000001 0.000000 0.000003 0.000001 0.000001 0.000000 0.000001 17.381009 -19.848011 -13.493199 25.351941 -3.194185 -0.540799 -16.822845 -3.392325 15.264529 0.000000 -0.000001 -0.000000 -0.000001 -0.000000 0.000000 -0.000000 -0.000001 0.000000 5.415679 -4.663348 -0.153366 10.847847 3.499700 -2.042202 10.847843 3.499688 -2.042201 3.765084 2.490152 6.424216 6.751137 15.504524 -8.701758 0.000000 0.000001 -0.000000 0.000000 0.000001 -0.000000 0.000000 0.000001 -0.000000 0.000000 0.000001 -0.000000 0.000000 0.000001 -0.000000 0.000000 0.000001 -0.000000 0.000000 0.000001 -0.000000 0.000000 0.000001 -0.000000 0.000000 0.000001 -0.000000 0.000000 0.000001 -0.000000 0.000000 0.000001 -0.000000 0.000000 0.000001 -0.000000 0.000000 0.000001 -0.000000 0.000000 0.000001 -0.000000 0.000000 0.000001 -0.000000 0.000000 0.000001 -0.000000 0.000000 0.000001 -0.000000 0.000000 0.000001 -0.000000 0.000000 0.000001 -0.000000 -1.740826 10.008583 19.434893 -25.641657 -39.190270 5.983985 12.438391 -24.901389 -10.034521 11.069279 -3.783596 12.449512 -0.504302 -7.128991 -4.521816 -3.486003 1.176226 8.244849 -0.000002 0.000000 0.000002 -5.691180 -15.352606 -26.500851 -9.534062 -13.742131 -42.072073 -0.000001 0.000001 0.000001 -7.483387 -16.763147 -29.042955 -11.416987 -10.533204 -36.437236 0.000003 -0.000001 -0.000001 -7.952513 -8.830278 -32.409470 -11.680050 -8.668665 -44.237998 0.000003 -0.000001 -0.000001 -9.356096 -6.172062 -29.929158 -14.044105 -3.817216 -56.067056 0.000000 0.000001 -0.000001 0.000000 0.000000 0.000000 0.297387 -2.580772 -7.119434 -24.364828 34.750503 -6.491575 3.770976 21.098159 9.368469 -4.583357 21.189675 10.584437 10.472674 10.788262 24.200704 0.844240 -10.541431 -8.352750 -0.000001 -0.000001 0.000003 -4.236215 12.850060 14.441574 -5.792351 10.682441 30.033971 0.000004 -0.000001 -0.000001 -5.268321 13.530934 16.934797 -7.103273 8.049413 24.666665 0.000001 0.000000 0.000001 -3.180877 5.947774 20.911027 -8.425434 8.061869 32.052944 0.000002 0.000001 -0.000001 -3.218667 4.714187 19.051006 -11.568127 5.316182 43.531316 -0.000002 -0.000001 0.000000 -0.000000 0.000000 0.000001 0.000001 0.000001 -0.000001 0.000001 0.000001 -0.000001 0.000001 0.000001 -0.000001 0.000001 0.000001 -0.000001 0.000001 0.000001 -0.000001 0.000001 0.000001 -0.000001 0.000001 0.000001 -0.000001 0.000001 0.000001 -0.000001 0.000000 -0.000000 -0.000001 -0.000001 0.000003 0.000000 
-7.724510 89.075790 -1.286073 -14.891571 -33.336456 -6.125862 0.000000 -6.467577 -0.000000 -11.835561 8.611176 15.113153 14.525278 -19.184434 2.977608 34.311937 -4.708854 -16.638332 -0.000001 0.000002 -0.000001 -0.000001 0.000001 0.000000 -0.000002 0.000000 0.000000 19.162883 -19.055266 -12.638123 14.369577 1.013808 -1.309448 4.189708 -0.364725 14.978487 0.000000 -0.000001 0.000001 0.000000 -0.000001 -0.000002 0.000000 0.000001 0.000000 5.059563 -4.536183 -0.338036 10.148497 3.743851 -2.337035 10.148496 3.743878 -2.337034 6.185546 2.219089 6.632935 8.363093 15.206692 -10.348303 -0.000000 -0.000001 0.000001 -0.000000 -0.000001 0.000001 -0.000000 -0.000001 0.000001 -0.000000 -0.000001 0.000001 -0.000000 -0.000001 0.000001 -0.000000 -0.000001 0.000001 -0.000000 -0.000001 0.000001 -0.000000 -0.000001 0.000001 -0.000000 -0.000001 0.000001 -0.000000 -0.000001 0.000001 -0.000000 -0.000001 0.000001 -0.000000 -0.000001 0.000001 -0.000000 -0.000001 0.000001 -0.000000 -0.000001 0.000001 -0.000000 -0.000001 0.000001 -0.000000 -0.000001 0.000001 -0.000000 -0.000001 0.000001 -0.000000 -0.000001 0.000001 -0.000000 -0.000001 0.000001 -3.167070 13.780732 23.146478 -24.178226 -34.877077 7.987689 11.192517 -26.493324 -9.706892 10.569318 -4.459553 14.270654 -1.083777 -6.870663 -3.381433 -3.481772 1.183087 8.245637 -0.000002 -0.000000 0.000001 -5.080982 -14.676482 -24.642803 -8.974322 -13.421292 -40.147818 -0.000001 0.000001 0.000004 -6.931544 -16.393993 -27.097423 -10.753407 -10.287258 -34.536435 -0.000000 -0.000000 -0.000001 -7.531045 -8.604146 -30.484610 -11.081472 -8.517513 -42.327796 -0.000000 0.000001 0.000002 -8.976486 -6.198638 -27.960822 -13.462181 -3.787219 -54.200590 -0.000000 -0.000001 0.000001 -0.000001 -0.000001 0.000001 0.192151 -3.941859 -9.462968 -24.414588 35.206193 -7.643587 4.822627 16.110852 8.074879 -5.382271 21.795764 15.888861 10.136311 10.005784 22.826909 0.783138 -10.402461 -8.354990 0.000001 -0.000000 -0.000000 -3.901041 12.321774 13.684344 -5.592427 10.506582 29.196323 -0.000001 0.000001 0.000002 -5.072149 13.334140 16.091390 -6.842954 7.894188 23.818891 -0.000001 0.000003 -0.000001 -3.133961 5.911102 20.026712 -8.157664 7.926923 31.197900 -0.000003 -0.000001 -0.000001 -3.206143 4.879379 18.081766 -11.276396 5.222516 42.696079 -0.000000 0.000001 0.000001 -0.000000 0.000000 -0.000001 0.000000 0.000004 -0.000001 0.000000 0.000004 -0.000001 0.000000 0.000004 -0.000001 0.000000 0.000004 -0.000001 0.000000 0.000004 -0.000001 0.000000 0.000004 -0.000001 0.000000 0.000004 -0.000001 0.000000 0.000004 -0.000001 0.000000 -0.000001 -0.000001 0.000001 -0.000003 -0.000000 
-8.458746 94.096603 -1.319518 -13.843147 -33.642353 -4.735355 -0.000000 -6.467568 -0.000000 -9.176471 9.096507 13.598844 8.637327 -26.160454 2.309914 38.828854 -6.302082 -19.121890 0.000001 0.000002 0.000001 -0.000001 -0.000001 0.000001 -0.000001 0.000000 0.000001 18.302566 -19.166933 -15.202232 7.399523 0.505455 -2.300674 16.639594 2.661492 24.537883 -0.000001 -0.000001 0.000000 0.000000 -0.000003 0.000001 0.000001 0.000001 -0.000001 5.014591 -4.430478 -0.438745 10.072718 3.936687 -2.636164 10.072720 3.936689 -2.636163 8.079805 2.146867 6.397282 8.432125 15.201851 -11.751660 -0.000000 -0.000000 -0.000000 -0.000000 -0.000000 -0.000000 -0.000000 -0.000000 -0.000000 -0.000000 -0.000000 -0.000000 -0.000000 -0.000000 -0.000000 -0.000000 -0.000000 -0.000000 -0.000000 -0.000000 -0.000000 -0.000000 -0.000000 -0.000000 -0.000000 -0.000000 -0.000000 -0.000000 -0.000000 -0.000000 -0.000000 -0.000000 -0.000000 -0.000000 -0.000000 -0.000000 -0.000000 -0.000000 -0.000000 -0.000000 -0.000000 -0.000000 -0.000000 -0.000000 -0.000000 -0.000000 -0.000000 -0.000000 -0.000000 -0.000000 -0.000000 -0.000000 -0.000000 -0.000000 -0.000000 -0.000000 -0.000000 -4.630809 17.333253 25.077688 -23.917444 -29.083430 8.856622 7.528363 -30.019112 -9.451062 9.165509 -4.106042 17.982681 -1.768330 -6.608742 -2.074486 -3.469385 1.204652 8.245663 0.000002 -0.000002 -0.000000 -4.441415 -13.882184 -22.603210 -8.365127 -13.042699 -38.011096 -0.000002 0.000000 -0.000004 -6.334203 -15.981444 -24.931133 -10.016348 -9.984604 -32.398814 0.000000 0.000001 0.000001 -7.059071 -8.353291 -28.309628 -10.408173 -8.321979 -40.161024 -0.000001 0.000000 0.000002 -8.527555 -6.231910 -25.718545 -12.804138 -3.730765 -52.085455 0.000001 -0.000000 -0.000002 -0.000000 0.000002 -0.000000 0.029639 -5.466253 -11.001890 -25.114921 33.716262 -8.163181 3.430121 13.247469 6.761574 -6.463278 21.672503 19.859798 9.570931 9.140845 20.973078 0.641967 -10.090653 -8.361165 -0.000001 0.000000 0.000000 -3.543124 11.694678 12.721386 -5.340936 10.277641 28.127178 0.000002 -0.000000 0.000003 -4.826426 13.082574 15.013809 -6.501783 7.682820 22.697212 -0.000000 -0.000001 -0.000001 -3.035926 5.839065 18.898124 -7.803629 7.740624 30.058160 -0.000002 0.000002 0.000000 -3.110101 5.028970 16.851692 -10.892543 5.092251 41.592843 0.000002 0.000002 0.000003 -0.000001 0.000002 -0.000003 0.000001 -0.000001 0.000000 0.000001 -0.000001 0.000000 0.000001 -0.000001 0.000000 0.000001 -0.000001 0.000000 0.000001 -0.000001 0.000000 0.000001 -0.000001 0.000000 0.000001 -0.000001 0.000000 0.000001 -0.000001 0.000000 0.000001 0.000001 0.000000 -0.000000 0.000000 -0.000000 
